<svg xmlns="http://www.w3.org/2000/svg" viewBox="60 60 680 880"><!-- MOCK image for demo purposes - replace with real client photo before launch --><defs><linearGradient id="bg9095" x1="0" y1="0" x2="1" y2="1"><stop offset="0" stop-color="#f9ecef"/><stop offset="1" stop-color="#dfa0b0"/></linearGradient></defs><rect x="0" y="0" width="800" height="1000" fill="url(#bg9095)"/><circle cx="120" cy="120" r="150" fill="#ffffff" opacity="0.18"/><circle cx="700" cy="680" r="180" fill="#ffffff" opacity="0.14"/><circle cx="660" cy="140" r="60" fill="#ffffff" opacity="0.20"/><g transform="translate(180,420) rotate(-18) scale(2.3)"><defs><linearGradient id="nb90950" x1="0" y1="0" x2="1" y2="0"><stop offset="0" stop-color="#d9a08e"/><stop offset="0.5" stop-color="#f6d9c8"/><stop offset="1" stop-color="#d9a08e"/></linearGradient><clipPath id="nc90950"><path d="M60 5 C95 30 105 90 100 150 C97 185 80 205 60 205 C40 205 23 185 20 150 C15 90 25 30 60 5 Z"/></clipPath></defs><ellipse cx="60" cy="216" rx="56" ry="11" fill="#5b2a34" opacity="0.18"/><path d="M60 5 C95 30 105 90 100 150 C97 185 80 205 60 205 C40 205 23 185 20 150 C15 90 25 30 60 5 Z" fill="url(#nb90950)"/><g clip-path="url(#nc90950)"><path d="M0 0 H120 V58 Q60 76 0 58 Z" fill="#ffffff"/><path d="M0 58 Q60 76 120 58" fill="none" stroke="#d4af37" stroke-width="4"/><ellipse cx="40" cy="105" rx="11" ry="46" fill="#ffffff" opacity="0.32" transform="rotate(-10 40 105)"/><ellipse cx="60" cy="200" rx="40" ry="14" fill="#000000" opacity="0.08"/></g><path d="M60 5 C95 30 105 90 100 150 C97 185 80 205 60 205 C40 205 23 185 20 150 C15 90 25 30 60 5 Z" fill="none" stroke="#ffffff" stroke-opacity="0.4" stroke-width="2"/></g><g transform="translate(380,360) rotate(4) scale(2.5)"><defs><linearGradient id="nb90951" x1="0" y1="0" x2="1" y2="0"><stop offset="0" stop-color="#8e1f2f"/><stop offset="0.5" stop-color="#c63a4d"/><stop offset="1" stop-color="#8e1f2f"/></linearGradient><clipPath id="nc90951"><path d="M60 5 C95 30 105 90 100 150 C97 185 80 205 60 205 C40 205 23 185 20 150 C15 90 25 30 60 5 Z"/></clipPath></defs><ellipse cx="60" cy="216" rx="56" ry="11" fill="#5b2a34" opacity="0.18"/><path d="M60 5 C95 30 105 90 100 150 C97 185 80 205 60 205 C40 205 23 185 20 150 C15 90 25 30 60 5 Z" fill="url(#nb90951)"/><g clip-path="url(#nc90951)"><ellipse cx="40" cy="105" rx="11" ry="46" fill="#ffffff" opacity="0.32" transform="rotate(-10 40 105)"/><ellipse cx="60" cy="200" rx="40" ry="14" fill="#000000" opacity="0.08"/></g><path d="M60 5 C95 30 105 90 100 150 C97 185 80 205 60 205 C40 205 23 185 20 150 C15 90 25 30 60 5 Z" fill="none" stroke="#ffffff" stroke-opacity="0.4" stroke-width="2"/></g><g transform="translate(530,440) rotate(22) scale(2.0)"><defs><linearGradient id="nb90952" x1="0" y1="0" x2="1" y2="0"><stop offset="0" stop-color="#c26a84"/><stop offset="0.5" stop-color="#f2a7bd"/><stop offset="1" stop-color="#c26a84"/></linearGradient><clipPath id="nc90952"><path d="M60 5 C95 30 105 90 100 150 C97 185 80 205 60 205 C40 205 23 185 20 150 C15 90 25 30 60 5 Z"/></clipPath></defs><ellipse cx="60" cy="216" rx="56" ry="11" fill="#5b2a34" opacity="0.18"/><path d="M60 5 C95 30 105 90 100 150 C97 185 80 205 60 205 C40 205 23 185 20 150 C15 90 25 30 60 5 Z" fill="url(#nb90952)"/><g clip-path="url(#nc90952)"><circle cx="60" cy="168" r="9" fill="#d4af37"/><circle cx="62.5" cy="165.5" r="2.5" fill="#fff"/><circle cx="42" cy="184" r="6" fill="#f7c8d3"/><circle cx="43.5" cy="182.5" r="1.8" fill="#fff"/><circle cx="78" cy="184" r="6" fill="#ffffff"/><circle cx="79.5" cy="182.5" r="1.8" fill="#e9b6c2"/><ellipse cx="40" cy="105" rx="11" ry="46" fill="#ffffff" opacity="0.32" transform="rotate(-10 40 105)"/><ellipse cx="60" cy="200" rx="40" ry="14" fill="#000000" opacity="0.08"/></g><path d="M60 5 C95 30 105 90 100 150 C97 185 80 205 60 205 C40 205 23 185 20 150 C15 90 25 30 60 5 Z" fill="none" stroke="#ffffff" stroke-opacity="0.4" stroke-width="2"/></g><path d="M150 604 Q152.88 617.12 166 620 Q152.88 622.88 150 636 Q147.12 622.88 134 620 Q147.12 617.12 150 604 Z" fill="#ffffff" opacity="0.9"/><path d="M660 238 Q662.16 247.84 672 250 Q662.16 252.16 660 262 Q657.84 252.16 648 250 Q657.84 247.84 660 238 Z" fill="#ffffff" opacity="0.9"/><path d="M580 591 Q581.62 598.38 589 600 Q581.62 601.62 580 609 Q578.38 601.62 571 600 Q578.38 598.38 580 591 Z" fill="#ffffff" opacity="0.7"/><path d="M230 192 Q231.44 198.56 238 200 Q231.44 201.44 230 208 Q228.56 201.44 222 200 Q228.56 198.56 230 192 Z" fill="#ffffff" opacity="0.7"/></svg>