<svg xmlns="http://www.w3.org/2000/svg" viewBox="0 0 800 800"><!-- MOCK image for demo purposes - replace with real client photo before launch --><defs><linearGradient id="bg8776" x1="0" y1="0" x2="1" y2="1"><stop offset="0" stop-color="#f6dfe4"/><stop offset="1" stop-color="#d98a9c"/></linearGradient></defs><rect width="800" height="800" fill="url(#bg8776)"/><circle cx="120" cy="120" r="150" fill="#ffffff" opacity="0.18"/><circle cx="700" cy="680" r="180" fill="#ffffff" opacity="0.14"/><circle cx="660" cy="140" r="60" fill="#ffffff" opacity="0.20"/><g transform="translate(150,330) rotate(-16) scale(1.0)"><defs><linearGradient id="nb87760" x1="0" y1="0" x2="1" y2="0"><stop offset="0" stop-color="#8e1f2f"/><stop offset="0.5" stop-color="#c63a4d"/><stop offset="1" stop-color="#8e1f2f"/></linearGradient><clipPath id="nc87760"><path d="M60 5 C95 30 105 90 100 150 C97 185 80 205 60 205 C40 205 23 185 20 150 C15 90 25 30 60 5 Z"/></clipPath></defs><ellipse cx="60" cy="216" rx="56" ry="11" fill="#5b2a34" opacity="0.18"/><path d="M60 5 C95 30 105 90 100 150 C97 185 80 205 60 205 C40 205 23 185 20 150 C15 90 25 30 60 5 Z" fill="url(#nb87760)"/><g clip-path="url(#nc87760)"><ellipse cx="40" cy="105" rx="11" ry="46" fill="#ffffff" opacity="0.32" transform="rotate(-10 40 105)"/><ellipse cx="60" cy="200" rx="40" ry="14" fill="#000000" opacity="0.08"/></g><path d="M60 5 C95 30 105 90 100 150 C97 185 80 205 60 205 C40 205 23 185 20 150 C15 90 25 30 60 5 Z" fill="none" stroke="#ffffff" stroke-opacity="0.4" stroke-width="2"/></g><g transform="translate(255,300) rotate(-8) scale(1.08)"><defs><linearGradient id="nb87761" x1="0" y1="0" x2="1" y2="0"><stop offset="0" stop-color="#8e1f2f"/><stop offset="0.5" stop-color="#c63a4d"/><stop offset="1" stop-color="#8e1f2f"/></linearGradient><clipPath id="nc87761"><path d="M60 5 C95 30 105 90 100 150 C97 185 80 205 60 205 C40 205 23 185 20 150 C15 90 25 30 60 5 Z"/></clipPath></defs><ellipse cx="60" cy="216" rx="56" ry="11" fill="#5b2a34" opacity="0.18"/><path d="M60 5 C95 30 105 90 100 150 C97 185 80 205 60 205 C40 205 23 185 20 150 C15 90 25 30 60 5 Z" fill="url(#nb87761)"/><g clip-path="url(#nc87761)"><ellipse cx="40" cy="105" rx="11" ry="46" fill="#ffffff" opacity="0.32" transform="rotate(-10 40 105)"/><ellipse cx="60" cy="200" rx="40" ry="14" fill="#000000" opacity="0.08"/></g><path d="M60 5 C95 30 105 90 100 150 C97 185 80 205 60 205 C40 205 23 185 20 150 C15 90 25 30 60 5 Z" fill="none" stroke="#ffffff" stroke-opacity="0.4" stroke-width="2"/></g><g transform="translate(360,285) rotate(0) scale(1.15)"><defs><linearGradient id="nb87762" x1="0" y1="0" x2="1" y2="0"><stop offset="0" stop-color="#8e1f2f"/><stop offset="0.5" stop-color="#c63a4d"/><stop offset="1" stop-color="#8e1f2f"/></linearGradient><clipPath id="nc87762"><path d="M60 5 C95 30 105 90 100 150 C97 185 80 205 60 205 C40 205 23 185 20 150 C15 90 25 30 60 5 Z"/></clipPath></defs><ellipse cx="60" cy="216" rx="56" ry="11" fill="#5b2a34" opacity="0.18"/><path d="M60 5 C95 30 105 90 100 150 C97 185 80 205 60 205 C40 205 23 185 20 150 C15 90 25 30 60 5 Z" fill="url(#nb87762)"/><g clip-path="url(#nc87762)"><ellipse cx="40" cy="105" rx="11" ry="46" fill="#ffffff" opacity="0.32" transform="rotate(-10 40 105)"/><ellipse cx="60" cy="200" rx="40" ry="14" fill="#000000" opacity="0.08"/></g><path d="M60 5 C95 30 105 90 100 150 C97 185 80 205 60 205 C40 205 23 185 20 150 C15 90 25 30 60 5 Z" fill="none" stroke="#ffffff" stroke-opacity="0.4" stroke-width="2"/></g><g transform="translate(465,300) rotate(8) scale(1.08)"><defs><linearGradient id="nb87763" x1="0" y1="0" x2="1" y2="0"><stop offset="0" stop-color="#8e1f2f"/><stop offset="0.5" stop-color="#c63a4d"/><stop offset="1" stop-color="#8e1f2f"/></linearGradient><clipPath id="nc87763"><path d="M60 5 C95 30 105 90 100 150 C97 185 80 205 60 205 C40 205 23 185 20 150 C15 90 25 30 60 5 Z"/></clipPath></defs><ellipse cx="60" cy="216" rx="56" ry="11" fill="#5b2a34" opacity="0.18"/><path d="M60 5 C95 30 105 90 100 150 C97 185 80 205 60 205 C40 205 23 185 20 150 C15 90 25 30 60 5 Z" fill="url(#nb87763)"/><g clip-path="url(#nc87763)"><ellipse cx="40" cy="105" rx="11" ry="46" fill="#ffffff" opacity="0.32" transform="rotate(-10 40 105)"/><ellipse cx="60" cy="200" rx="40" ry="14" fill="#000000" opacity="0.08"/></g><path d="M60 5 C95 30 105 90 100 150 C97 185 80 205 60 205 C40 205 23 185 20 150 C15 90 25 30 60 5 Z" fill="none" stroke="#ffffff" stroke-opacity="0.4" stroke-width="2"/></g><g transform="translate(570,330) rotate(16) scale(1.0)"><defs><linearGradient id="nb87764" x1="0" y1="0" x2="1" y2="0"><stop offset="0" stop-color="#8e1f2f"/><stop offset="0.5" stop-color="#c63a4d"/><stop offset="1" stop-color="#8e1f2f"/></linearGradient><clipPath id="nc87764"><path d="M60 5 C95 30 105 90 100 150 C97 185 80 205 60 205 C40 205 23 185 20 150 C15 90 25 30 60 5 Z"/></clipPath></defs><ellipse cx="60" cy="216" rx="56" ry="11" fill="#5b2a34" opacity="0.18"/><path d="M60 5 C95 30 105 90 100 150 C97 185 80 205 60 205 C40 205 23 185 20 150 C15 90 25 30 60 5 Z" fill="url(#nb87764)"/><g clip-path="url(#nc87764)"><ellipse cx="40" cy="105" rx="11" ry="46" fill="#ffffff" opacity="0.32" transform="rotate(-10 40 105)"/><ellipse cx="60" cy="200" rx="40" ry="14" fill="#000000" opacity="0.08"/></g><path d="M60 5 C95 30 105 90 100 150 C97 185 80 205 60 205 C40 205 23 185 20 150 C15 90 25 30 60 5 Z" fill="none" stroke="#ffffff" stroke-opacity="0.4" stroke-width="2"/></g><path d="M150 604 Q152.88 617.12 166 620 Q152.88 622.88 150 636 Q147.12 622.88 134 620 Q147.12 617.12 150 604 Z" fill="#ffffff" opacity="0.9"/><path d="M660 238 Q662.16 247.84 672 250 Q662.16 252.16 660 262 Q657.84 252.16 648 250 Q657.84 247.84 660 238 Z" fill="#ffffff" opacity="0.9"/><path d="M580 591 Q581.62 598.38 589 600 Q581.62 601.62 580 609 Q578.38 601.62 571 600 Q578.38 598.38 580 591 Z" fill="#ffffff" opacity="0.7"/><path d="M230 192 Q231.44 198.56 238 200 Q231.44 201.44 230 208 Q228.56 201.44 222 200 Q228.56 198.56 230 192 Z" fill="#ffffff" opacity="0.7"/></svg>